<svg width="800" height="400" viewBox="0 0 800 400" fill="none" xmlns="http://www.w3.org/2000/svg" role="img" aria-label="LockIn Logo">
<title>LockIn Logo</title>
<g clip-path="url(#clip0_21_73)">
<mask id="mask0_21_73" style="mask-type:luminance" maskUnits="userSpaceOnUse" x="577" y="20" width="213" height="380">
<path d="M789.867 20.8H577.067V400H789.867V20.8Z" fill="white"/>
</mask>
<g mask="url(#mask0_21_73)">
<path d="M729.274 148.644H781.266V365.26L637.633 259.619V365.26H585.649V148.644L729.274 259.285V148.644Z" fill="#0F172A"/>
</g>
<path d="M612.244 81.6938V63.6313C612.244 53.6562 620.331 45.5708 630.306 45.5708H711.481C735.34 45.5708 754.681 64.9104 754.681 88.7708V138.185" stroke="#0F172A" stroke-width="50"/>
<mask id="mask1_21_73" style="mask-type:luminance" maskUnits="userSpaceOnUse" x="0" y="30" width="166" height="370">
<path d="M165.333 30.9333H0V400H165.333V30.9333Z" fill="white"/>
</mask>
<g mask="url(#mask1_21_73)">
<path d="M59.85 317.843H160.558V362.893H9.64999V153.743H59.85V317.843Z" fill="#0F172A"/>
</g>
<mask id="mask2_21_73" style="mask-type:luminance" maskUnits="userSpaceOnUse" x="82" y="18" width="193" height="358">
<path d="M274.133 18.1333H82.1333V376H274.133V18.1333Z" fill="white"/>
</mask>
<g mask="url(#mask2_21_73)">
<path d="M177.814 122.987C203.125 122.987 224.702 131.909 242.548 149.753C260.391 167.603 269.314 189.184 269.314 214.495C269.314 239.807 260.391 261.384 242.548 279.228C224.702 297.074 203.125 305.995 177.814 305.995C152.502 305.995 130.925 297.074 113.081 279.228C95.2352 261.384 86.3143 239.807 86.3143 214.495C86.3143 189.184 95.2352 167.603 113.081 149.753C130.925 131.909 152.502 122.987 177.814 122.987ZM215.506 252.187C225.883 241.809 231.073 229.245 231.073 214.495C231.073 199.745 225.883 187.178 215.506 176.795C205.127 166.418 192.564 161.228 177.814 161.228C163.064 161.228 150.5 166.418 140.123 176.795C129.739 187.178 124.548 199.745 124.548 214.495C124.548 229.245 129.739 241.809 140.123 252.187C150.866 262.566 163.431 267.753 177.814 267.753C192.198 267.753 204.76 262.566 215.506 252.187Z" fill="#0F172A"/>
</g>
<mask id="mask3_21_73" style="mask-type:luminance" maskUnits="userSpaceOnUse" x="224" y="88" width="178" height="312">
<path d="M401.6 88.5333H224V400H401.6V88.5333Z" fill="white"/>
</mask>
<g mask="url(#mask3_21_73)">
<path d="M384.551 350.441C367.101 364.953 347.172 372.208 324.768 372.208C299.428 372.208 277.759 363.208 259.759 345.208C241.763 327.214 232.768 305.545 232.768 280.199C232.768 254.672 241.763 232.912 259.759 214.916C277.759 196.916 299.428 187.916 324.768 187.916C347.355 187.916 367.284 195.264 384.551 209.958L357.001 237.224C347.634 230.064 336.888 226.483 324.768 226.483C310.078 226.483 297.501 231.716 287.034 242.183C276.568 252.655 271.334 265.328 271.334 280.199C271.334 294.895 276.568 307.474 287.034 317.941C297.501 328.408 310.078 333.641 324.768 333.641C336.888 333.641 347.634 330.062 357.001 322.899L384.551 350.441Z" fill="#0F172A"/>
</g>
<mask id="mask4_21_73" style="mask-type:luminance" maskUnits="userSpaceOnUse" x="383" y="61" width="207" height="339">
<path d="M589.333 61.3333H383.467V400H589.333V61.3333Z" fill="white"/>
</mask>
<g mask="url(#mask4_21_73)">
<path d="M522.133 356.139L457.066 287.081L436.808 307.631V356.139H392.291V170.656H436.808V244.564L510.716 170.656H573.783L488.741 255.406L585.2 356.139H522.133Z" fill="#0F172A"/>
</g>
<mask id="mask5_21_73" style="mask-type:luminance" maskUnits="userSpaceOnUse" x="585" y="90" width="53" height="53">
<path d="M585.521 90.375H637.233V142.088H585.521V90.375Z" fill="white"/>
</mask>
<g mask="url(#mask5_21_73)">
<mask id="mask6_21_73" style="mask-type:luminance" maskUnits="userSpaceOnUse" x="585" y="90" width="53" height="53">
<path d="M611.377 90.375C597.098 90.375 585.521 101.95 585.521 116.231C585.521 130.51 597.098 142.088 611.377 142.088C625.656 142.088 637.233 130.51 637.233 116.231C637.233 101.95 625.656 90.375 611.377 90.375Z" fill="white"/>
</mask>
<g mask="url(#mask6_21_73)">
<mask id="mask7_21_73" style="mask-type:luminance" maskUnits="userSpaceOnUse" x="585" y="90" width="53" height="53">
<path d="M637.333 90.1333H585.067V142.4H637.333V90.1333Z" fill="white"/>
</mask>
<g mask="url(#mask7_21_73)">
<mask id="mask8_21_73" style="mask-type:luminance" maskUnits="userSpaceOnUse" x="585" y="90" width="53" height="53">
<path d="M585.521 90.375H637.233V142.088H585.521V90.375Z" fill="white"/>
</mask>
<g mask="url(#mask8_21_73)">
<mask id="mask9_21_73" style="mask-type:luminance" maskUnits="userSpaceOnUse" x="585" y="90" width="53" height="53">
<path d="M611.377 90.375C597.098 90.375 585.521 101.95 585.521 116.231C585.521 130.51 597.098 142.088 611.377 142.088C625.656 142.088 637.233 130.51 637.233 116.231C637.233 101.95 625.656 90.375 611.377 90.375Z" fill="white"/>
</mask>
<g mask="url(#mask9_21_73)">
<path d="M585.521 90.375H637.233V142.088H585.521V90.375Z" fill="#0F172A"/>
</g>
</g>
</g>
</g>
</g>
</g>
<defs>
<clipPath id="clip0_21_73">
<rect width="800" height="400" fill="white"/>
</clipPath>
</defs>
</svg>
